<svg id="visual" viewBox="0 0 960 350" width="960" height="350" xmlns="http://www.w3.org/2000/svg" xmlns:xlink="http://www.w3.org/1999/xlink" version="1.1"><rect x="0" y="0" width="960" height="350" fill="#40916c"></rect><path d="M0 131L22.8 129.2C45.7 127.3 91.3 123.7 137 126.3C182.7 129 228.3 138 274 146.8C319.7 155.7 365.3 164.3 411.2 165.7C457 167 503 161 548.8 152.8C594.7 144.7 640.3 134.3 686 137C731.7 139.7 777.3 155.3 823 155.2C868.7 155 914.3 139 937.2 131L960 123L960 0L937.2 0C914.3 0 868.7 0 823 0C777.3 0 731.7 0 686 0C640.3 0 594.7 0 548.8 0C503 0 457 0 411.2 0C365.3 0 319.7 0 274 0C228.3 0 182.7 0 137 0C91.3 0 45.7 0 22.8 0L0 0Z" fill="#4ad66d"></path><path d="M0 99L22.8 99.7C45.7 100.3 91.3 101.7 137 106.8C182.7 112 228.3 121 274 121.2C319.7 121.3 365.3 112.7 411.2 104.2C457 95.7 503 87.3 548.8 88.5C594.7 89.7 640.3 100.3 686 107.2C731.7 114 777.3 117 823 120.7C868.7 124.3 914.3 128.7 937.2 130.8L960 133L960 0L937.2 0C914.3 0 868.7 0 823 0C777.3 0 731.7 0 686 0C640.3 0 594.7 0 548.8 0C503 0 457 0 411.2 0C365.3 0 319.7 0 274 0C228.3 0 182.7 0 137 0C91.3 0 45.7 0 22.8 0L0 0Z" fill="#42c952"></path><path d="M0 95L22.8 91C45.7 87 91.3 79 137 74C182.7 69 228.3 67 274 71C319.7 75 365.3 85 411.2 89C457 93 503 91 548.8 85.7C594.7 80.3 640.3 71.7 686 66.7C731.7 61.7 777.3 60.3 823 58.2C868.7 56 914.3 53 937.2 51.5L960 50L960 0L937.2 0C914.3 0 868.7 0 823 0C777.3 0 731.7 0 686 0C640.3 0 594.7 0 548.8 0C503 0 457 0 411.2 0C365.3 0 319.7 0 274 0C228.3 0 182.7 0 137 0C91.3 0 45.7 0 22.8 0L0 0Z" fill="#3cbd34"></path><path d="M0 24L22.8 26.2C45.7 28.3 91.3 32.7 137 36.3C182.7 40 228.3 43 274 44.5C319.7 46 365.3 46 411.2 44.3C457 42.7 503 39.3 548.8 41.7C594.7 44 640.3 52 686 56.2C731.7 60.3 777.3 60.7 823 54.2C868.7 47.7 914.3 34.3 937.2 27.7L960 21L960 0L937.2 0C914.3 0 868.7 0 823 0C777.3 0 731.7 0 686 0C640.3 0 594.7 0 548.8 0C503 0 457 0 411.2 0C365.3 0 319.7 0 274 0C228.3 0 182.7 0 137 0C91.3 0 45.7 0 22.8 0L0 0Z" fill="#38b000"></path></svg>